<?xml version="1.0" standalone="no"?>
<!DOCTYPE svg PUBLIC "-//W3C//DTD SVG 20010904//EN"
 "http://www.w3.org/TR/2001/REC-SVG-20010904/DTD/svg10.dtd">
<svg version="1.0" xmlns="http://www.w3.org/2000/svg"
 width="1282.000000pt" height="1222.000000pt" viewBox="0 0 1282.000000 1222.000000"
 preserveAspectRatio="xMidYMid meet">

<g transform="translate(0.000000,1222.000000) scale(0.100000,-0.100000)"
fill="#000000" stroke="none">
<path d="M5145 12204 c-1025 -106 -1861 -814 -2199 -1862 -24 -75 -75 -202
-114 -282 -120 -249 -208 -526 -247 -785 -9 -60 -18 -120 -21 -131 -3 -19 -13
-22 -76 -28 -117 -11 -312 -54 -447 -98 -535 -174 -988 -527 -1313 -1023 -137
-208 -270 -493 -333 -713 -15 -51 -62 -166 -105 -255 -254 -526 -339 -1122
-244 -1707 73 -445 377 -811 794 -953 184 -63 145 -60 1083 -64 l857 -4 0
-910 0 -909 -612 0 -613 0 -35 67 c-100 194 -336 302 -544 248 -229 -60 -377
-249 -377 -480 0 -245 173 -446 419 -486 154 -25 311 30 423 148 35 38 75 92
88 121 l24 52 774 0 773 0 0 573 c0 314 3 798 7 1075 l6 502 909 0 908 0 0
-995 0 -994 -57 -28 c-69 -34 -160 -116 -203 -183 -97 -151 -97 -368 -1 -519
49 -75 132 -148 217 -188 67 -32 87 -37 174 -41 81 -4 110 -1 168 17 356 108
470 551 208 816 -39 39 -83 72 -123 91 l-62 29 0 998 -1 997 945 0 945 0 0
-1664 0 -1665 -52 -24 c-103 -47 -206 -157 -249 -267 -33 -84 -38 -228 -10
-318 75 -247 340 -401 585 -337 231 60 376 247 376 484 -1 189 -114 367 -283
441 l-47 21 0 1664 0 1665 940 0 940 0 0 -1075 0 -1075 678 -1 677 0 29 -61
c60 -127 207 -233 358 -258 242 -41 490 121 554 364 16 60 18 173 3 236 -49
215 -261 380 -488 380 -168 0 -356 -118 -427 -268 l-29 -61 -517 0 -518 -1 0
910 0 909 1038 3 c1036 3 1037 3 1117 26 110 30 247 100 328 167 129 107 214
238 273 425 21 63 66 172 101 243 207 416 296 802 296 1282 0 249 -14 394 -59
608 -99 470 -318 904 -638 1266 -344 389 -846 679 -1331 768 l-90 17 -1 220
c-1 364 -50 632 -174 950 -364 931 -1253 1521 -2183 1448 -177 -14 -354 -48
-505 -98 -133 -43 -377 -163 -499 -243 l-92 -61 -48 51 c-26 28 -52 57 -56 65
-14 25 -228 213 -323 285 -248 186 -551 335 -838 410 -213 55 -332 71 -571 74
-121 2 -238 1 -260 -1z m-580 -4338 c115 -30 310 -119 302 -139 -16 -39 -91
-213 -94 -216 -1 -2 -47 17 -100 42 -183 86 -367 119 -553 99 -222 -24 -312
-83 -312 -204 1 -126 89 -179 442 -268 205 -52 297 -83 404 -138 115 -59 196
-133 238 -220 32 -65 33 -70 33 -197 0 -126 -1 -132 -32 -196 -44 -90 -117
-160 -217 -210 -135 -66 -212 -81 -438 -86 -218 -6 -333 7 -483 54 -88 28
-254 109 -261 128 -6 14 85 247 95 243 3 -2 58 -29 121 -61 146 -73 271 -106
435 -114 313 -15 494 62 497 211 1 64 -18 110 -64 152 -73 65 -176 105 -536
204 -267 74 -409 163 -478 300 -23 45 -29 72 -32 149 -6 119 9 184 58 260 49
76 134 139 240 180 130 50 209 61 435 57 177 -3 211 -6 300 -30z m4430 0 c115
-30 310 -119 302 -139 -16 -39 -91 -213 -94 -216 -1 -2 -47 17 -100 42 -183
86 -367 119 -553 99 -222 -24 -312 -83 -312 -204 1 -126 89 -179 442 -268 205
-52 297 -83 404 -138 115 -59 196 -133 238 -220 32 -65 33 -70 33 -197 0 -126
-1 -132 -32 -196 -44 -90 -117 -160 -217 -210 -135 -66 -212 -81 -438 -86
-218 -6 -333 7 -483 54 -88 28 -254 109 -261 128 -6 14 85 247 95 243 3 -2 58
-29 121 -61 146 -73 271 -106 435 -114 313 -15 494 62 497 211 1 64 -18 110
-64 152 -73 65 -176 105 -536 204 -267 74 -409 163 -478 300 -23 45 -29 72
-32 149 -6 119 9 184 58 260 49 76 134 139 240 180 130 50 209 61 435 57 177
-3 211 -6 300 -30z m-3112 -471 c190 -40 319 -163 362 -346 12 -52 15 -144 15
-476 l0 -413 -130 0 -130 0 0 66 0 67 -43 -40 c-91 -84 -218 -123 -402 -123
-225 0 -349 58 -415 195 -32 68 -40 219 -15 294 24 74 92 144 179 185 117 56
204 71 411 70 99 0 202 -4 229 -8 l49 -8 -7 54 c-24 186 -114 260 -321 259
-150 -1 -280 -42 -387 -124 l-47 -36 -55 97 -55 97 36 32 c40 36 164 103 238
128 132 45 354 59 488 30z m1430 0 c190 -40 319 -163 362 -346 12 -52 15 -144
15 -476 l0 -413 -130 0 -130 0 0 66 0 67 -43 -40 c-91 -84 -218 -123 -402
-123 -225 0 -349 58 -415 195 -32 68 -40 219 -15 294 24 74 92 144 179 185
117 56 204 71 411 70 99 0 202 -4 229 -8 l49 -8 -7 54 c-24 186 -114 260 -321
259 -150 -1 -280 -42 -387 -124 l-47 -36 -55 97 -55 97 36 32 c40 36 164 103
238 128 132 45 354 59 488 30z"/>
<path d="M5625 6670 c-171 -18 -241 -66 -237 -166 4 -110 112 -162 295 -142
114 12 197 49 275 122 31 29 32 33 32 108 l0 78 -99 0 c-54 0 -118 2 -142 4
-24 2 -80 0 -124 -4z"/>
<path d="M7055 6670 c-171 -18 -241 -66 -237 -166 4 -110 112 -162 295 -142
114 12 197 49 275 122 31 29 32 33 32 108 l0 78 -99 0 c-54 0 -118 2 -142 4
-24 2 -80 0 -124 -4z"/>
</g>
</svg>
